<svg xmlns="http://www.w3.org/2000/svg" xmlns:xlink="http://www.w3.org/1999/xlink" viewBox="0 0 1080 1920">
  <defs>
    <style>
      .cls-1 {
        clip-path: url(#clip-Settings);
      }

      .cls-10, .cls-2 {
        fill: #fff;
      }

      .cls-3 {
        opacity: 0.5;
      }

      .cls-4 {
        font-size: 18px;
        letter-spacing: 0.167em;
      }

      .cls-15, .cls-17, .cls-4, .cls-9 {
        font-family: SegoeUI-Bold, Segoe UI;
        font-weight: 700;
      }

      .cls-13, .cls-17, .cls-5, .cls-7, .cls-8, .cls-9 {
        fill: #333;
      }

      .cls-5 {
        font-size: 50px;
        letter-spacing: 0.079em;
      }

      .cls-10, .cls-5, .cls-8 {
        font-family: SegoeUI, Segoe UI;
      }

      .cls-15, .cls-16, .cls-6 {
        fill: #ededed;
      }

      .cls-10, .cls-8, .cls-9 {
        font-size: 35px;
        letter-spacing: 0.081em;
      }

      .cls-11, .cls-9 {
        opacity: 0.8;
      }

      .cls-12, .cls-14 {
        fill: none;
      }

      .cls-13 {
        fill-rule: evenodd;
      }

      .cls-14, .cls-16 {
        stroke: #ededed;
        stroke-width: 5px;
      }

      .cls-14 {
        stroke-miterlimit: 10;
      }

      .cls-15, .cls-17 {
        font-size: 26px;
      }

      .cls-18 {
        filter: url(#XMLID_7_);
      }

      .cls-19 {
        filter: url(#XMLID_99_);
      }
    </style>
    <filter id="XMLID_99_" x="-64.5" y="1631.5" width="1209" height="355.9" filterUnits="userSpaceOnUse">
      <feOffset dy="3" input="SourceAlpha"/>
      <feGaussianBlur stdDeviation="21.5" result="blur"/>
      <feFlood flood-opacity="0.278"/>
      <feComposite operator="in" in2="blur"/>
      <feComposite in="SourceGraphic"/>
    </filter>
    <filter id="XMLID_7_" x="647.684" y="570" width="211.479" height="135.8" filterUnits="userSpaceOnUse">
      <feOffset dy="13" input="SourceAlpha"/>
      <feGaussianBlur stdDeviation="9.5" result="blur-2"/>
      <feFlood flood-opacity="0.49"/>
      <feComposite operator="in" in2="blur-2"/>
      <feComposite in="SourceGraphic"/>
    </filter>
    <clipPath id="clip-Settings">
      <rect width="1080" height="1920"/>
    </clipPath>
  </defs>
  <g id="Settings" class="cls-1">
    <rect class="cls-2" width="1080" height="1920"/>
    <g id="Group_44" data-name="Group 44" transform="translate(2447 919)">
      <g class="cls-19" transform="matrix(1, 0, 0, 1, -2447, -919)">
        <rect id="XMLID_99_2" data-name="XMLID_99_" class="cls-2" width="1080" height="226.9" transform="translate(0 1693)"/>
      </g>
      <g id="XMLID_30_" class="cls-3" transform="translate(-2469.8 774)">
        <g id="XMLID_31_">
          <path id="XMLID_32_" d="M242.4,113.5V92.1h0V70.7H156.8V92.1h0v21.4h0v21.4h0v21.4h85.6V134.9h0V113.5h0Zm-19.4,2h17.4v17.4H223Zm0-42.8h17.4V90.1H223Zm-42.8,0h17.4V90.1H180.2ZM158.9,94.1h17.4v17.4H158.9Zm17.3,60.1H158.8V136.8h17.4Zm42.8,0H201.6V136.8H219Zm-19.4-19.4h0Zm-19.4-2V115.4h17.4v17.4Zm19.4-19.3h0Zm2-2V94.1H219v17.4Zm-2-19.4Z"/>
        </g>
      </g>
      <g id="XMLID_23_" class="cls-3" transform="translate(-2447 773)">
        <path id="XMLID_29_" d="M384.8,91.1l19.4-19.4h1v-2H382.8V92.1h2Z"/>
        <path id="XMLID_28_" d="M447.9,69.7v2h20.4V92.1h2V69.7Z"/>
        <path id="XMLID_25_" d="M468.3,135.8l-19.4,19.4V134.8a22.4,22.4,0,1,0-44.8,0v20.4H384.7V134.8h-2v22.4h87.6V134.8h-2Zm-21.4,19.4H406.1V134.8a20.4,20.4,0,1,1,40.8,0Z"/>
        <circle id="XMLID_24_" cx="13.1" cy="13.1" r="13.1" transform="translate(413.4 79.8)"/>
      </g>
      <g id="XMLID_13_" class="cls-3" transform="translate(-2447.7 773)">
        <path id="XMLID_22_" d="M611.7,71.7h20.4v-2H609.7V92.1h2Z"/>
        <path id="XMLID_21_" d="M674.8,69.7v1h0v1h1l19.4,19.4v1h2V69.7Z"/>
        <path id="XMLID_20_" d="M632.1,156.2v-1h-1l-19.4-19.4v-1h-2v22.4h22.4v-1Z"/>
        <path id="XMLID_19_" d="M695.2,155.2H674.8v2h22.4V134.8h-2Z"/>
        <path id="XMLID_18_" d="M632.6,92.6a20.448,20.448,0,0,1,14.4-6,20.034,20.034,0,0,1,14.4,6l1.4-1.4A22.246,22.246,0,0,0,647,84.6a21.84,21.84,0,0,0-15.8,6.6,22.392,22.392,0,0,0,0,31.6l1.4-1.4A20.28,20.28,0,0,1,632.6,92.6Z"/>
        <path id="XMLID_17_" d="M647,94.4a12.4,12.4,0,0,1,8.9,3.7l1.4-1.4A14.6,14.6,0,0,0,632.4,107a14.371,14.371,0,0,0,4.3,10.3l1.4-1.4A12.6,12.6,0,0,1,647,94.4Z"/>
        <path id="XMLID_16_" d="M650.1,103.9l1.4-1.4a6.364,6.364,0,1,0-9,9l1.4-1.4a4.384,4.384,0,0,1,6.2-6.2Z"/>
        <path id="XMLID_15_" d="M678.6,138.6a21.427,21.427,0,0,0,0-30.2l-9.1-9.1-30.2,30.2,9.1,9.1a21.4,21.4,0,0,0,18.7,6v-11H675v8q1.8-1.35,3.6-3Z"/>
        <path id="XMLID_14_" d="M667,155.1h7.9V141.5a22.306,22.306,0,0,1-7.9,3Z"/>
      </g>
      <g id="XMLID_4_" transform="translate(-2447 760)">
        <path id="XMLID_12_" d="M901.8,69.7v2h20.3V92.1h2V69.7Z"/>
        <path id="XMLID_11_" d="M922.1,135.8l-19.3,19.4h-1v2h22.3V134.8h-2Z"/>
        <path id="XMLID_10_" d="M838.6,91.1,858,71.7h1v-2H836.6V92.1h2Z"/>
        <path id="XMLID_9_" d="M838.6,134.8h-2v22.4H859v-2H838.6Z"/>
        <path id="XMLID_6_" d="M908.3,119.6a6.108,6.108,0,0,1,0-12.2,27.428,27.428,0,0,0-3.9-9.3,6.072,6.072,0,0,1-8.4-.2h0a6.072,6.072,0,0,1-.2-8.4,29.582,29.582,0,0,0-9.3-3.9,6.108,6.108,0,0,1-12.2,0,27.428,27.428,0,0,0-9.3,3.9,6.088,6.088,0,0,1-8.6,8.6,29.584,29.584,0,0,0-3.9,9.3,6.108,6.108,0,0,1,0,12.2,27.428,27.428,0,0,0,3.9,9.3,6.088,6.088,0,0,1,8.6,8.6,29.582,29.582,0,0,0,9.3,3.9,6.108,6.108,0,0,1,12.2,0,27.428,27.428,0,0,0,9.3-3.9,6.072,6.072,0,0,1,.2-8.4h0a6.072,6.072,0,0,1,8.4-.2A30.6,30.6,0,0,0,908.3,119.6Zm-27.9,7.5a14.2,14.2,0,1,1,14.2-14.2A14.19,14.19,0,0,1,880.4,127.1Z"/>
        <circle id="XMLID_5_" cx="5.7" cy="5.7" r="5.7" transform="translate(874.7 107.2)"/>
      </g>
      <text id="SETTINGS-2" data-name="SETTINGS" class="cls-4" transform="translate(-1567 956)"><tspan x="-52.568" y="0">SETTINGS</tspan></text>
    </g>
    <text id="SETTINGS-3" data-name="SETTINGS" class="cls-5" transform="translate(540 82)"><tspan x="-122.223" y="0">SETTINGS</tspan></text>
    <rect id="Rectangle_105" data-name="Rectangle 105" class="cls-6" width="955" height="163" rx="15" transform="translate(61 145)"/>
    <rect id="Rectangle_106" data-name="Rectangle 106" class="cls-6" width="955" height="163" rx="15" transform="translate(61 344)"/>
    <rect id="Rectangle_133" data-name="Rectangle 133" class="cls-7" width="955" height="163" rx="15" transform="translate(61 543)"/>
    <text id="Notifications" class="cls-8" transform="translate(99 240)"><tspan x="0" y="0">Notifications</tspan></text>
    <text id="_3" data-name="3" class="cls-9" transform="translate(899 240)"><tspan x="0" y="0">3</tspan></text>
    <text id="Support" class="cls-8" transform="translate(99 439)"><tspan x="0" y="0">Support</tspan></text>
    <text id="Game_sounds" data-name="Game sounds" class="cls-10" transform="translate(99 638)"><tspan x="0" y="0">Game sounds</tspan></text>
    <text id="About_QuizVegas" data-name="About QuizVegas" class="cls-8" transform="translate(99 795)"><tspan x="0" y="0">About QuizVegas</tspan></text>
    <text id="Privacy_policy" data-name="Privacy policy" class="cls-8" transform="translate(99 917)"><tspan x="0" y="0">Privacy policy</tspan></text>
    <text id="Terms_and_Conditions" data-name="Terms and Conditions" class="cls-8" transform="translate(99 1040)"><tspan x="0" y="0">Terms and Conditions</tspan></text>
    <text id="Refund_Policy" data-name="Refund Policy" class="cls-8" transform="translate(99 1162)"><tspan x="0" y="0">Refund Policy</tspan></text>
    <text id="About_PayTM" data-name="About PayTM" class="cls-8" transform="translate(99 1285)"><tspan x="0" y="0">About PayTM</tspan></text>
    <text id="Logout" class="cls-8" transform="translate(99 1407)"><tspan x="0" y="0">Logout</tspan></text>
    <g id="ic_chevron_right" class="cls-11" transform="translate(919 195)">
      <rect id="rectangle" class="cls-12" width="65.9" height="65.9"/>
      <path id="path" class="cls-13" d="M8.6,9.844,12.444,6,28.919,22.475,12.444,38.95,8.6,35.106,21.231,22.475Z" transform="translate(15.014 10.475)"/>
    </g>
    <g id="ic_chevron_right-2" data-name="ic_chevron_right" class="cls-11" transform="translate(919 393)">
      <rect id="rectangle-2" data-name="rectangle" class="cls-12" width="65.9" height="65.9"/>
      <path id="path-2" data-name="path" class="cls-13" d="M8.6,9.844,12.444,6,28.919,22.475,12.444,38.95,8.6,35.106,21.231,22.475Z" transform="translate(15.014 10.475)"/>
    </g>
    <g id="Group_347" data-name="Group 347" transform="translate(311.184 317.5)">
      <rect id="XMLID_3_" class="cls-14" width="149.48" height="73.8" transform="translate(517.136 270.5)"/>
      <text id="OFF" class="cls-15" transform="translate(567.668 316.261)"><tspan x="0" y="0">OFF</tspan></text>
      <g class="cls-18" transform="matrix(1, 0, 0, 1, -311.18, -317.5)">
        <rect id="XMLID_7_2" data-name="XMLID_7_" class="cls-16" width="149.48" height="73.8" transform="translate(678.68 588)"/>
      </g>
      <text id="ON" class="cls-17" transform="translate(423.516 316.261)"><tspan x="0" y="0">ON</tspan></text>
    </g>
  </g>
</svg>
