<svg xmlns="http://www.w3.org/2000/svg" xmlns:xlink="http://www.w3.org/1999/xlink" viewBox="0 0 1080 1920">
  <defs>
    <style>
      .cls-1 {
        clip-path: url(#clip-Wallet);
      }

      .cls-12, .cls-2, .cls-4, .cls-9 {
        fill: #333;
      }

      .cls-2, .cls-3 {
        stroke: #333;
        stroke-width: 3px;
      }

      .cls-11, .cls-3, .cls-5, .cls-6, .cls-7 {
        fill: #fff;
      }

      .cls-6 {
        font-size: 48px;
        letter-spacing: 0.025em;
      }

      .cls-11, .cls-12, .cls-13, .cls-14, .cls-6 {
        font-family: SegoeUI, Segoe UI;
      }

      .cls-14, .cls-7, .cls-8 {
        font-size: 30px;
      }

      .cls-7, .cls-8, .cls-9 {
        font-family: SegoeUI-Bold, Segoe UI;
        font-weight: 700;
      }

      .cls-7 {
        letter-spacing: 0.234em;
        opacity: 0.66;
      }

      .cls-8 {
        fill: #23b72d;
      }

      .cls-9 {
        font-size: 77px;
      }

      .cls-10 {
        opacity: 0.6;
      }

      .cls-11, .cls-12 {
        font-size: 35px;
        letter-spacing: 0.223em;
      }

      .cls-13, .cls-14 {
        fill: #343434;
        letter-spacing: 0.081em;
      }

      .cls-13 {
        font-size: 50px;
      }

      .cls-14 {
        opacity: 0.5;
      }

      .cls-15 {
        stroke: none;
      }

      .cls-16 {
        fill: none;
      }

      .cls-17 {
        filter: url(#Rectangle_126-4);
      }

      .cls-18 {
        filter: url(#Rectangle_126-3);
      }

      .cls-19 {
        filter: url(#Rectangle_126-2);
      }

      .cls-20 {
        filter: url(#Rectangle_126);
      }
    </style>
    <filter id="Rectangle_126" x="-6" y="709" width="1093" height="398" filterUnits="userSpaceOnUse">
      <feOffset dy="12" input="SourceAlpha"/>
      <feGaussianBlur stdDeviation="23" result="blur"/>
      <feFlood flood-color="#110d24" flood-opacity="0.122"/>
      <feComposite operator="in" in2="blur"/>
      <feComposite in="SourceGraphic"/>
    </filter>
    <filter id="Rectangle_126-2" x="-6" y="1291" width="1093" height="398" filterUnits="userSpaceOnUse">
      <feOffset dy="12" input="SourceAlpha"/>
      <feGaussianBlur stdDeviation="23" result="blur-2"/>
      <feFlood flood-color="#110d24" flood-opacity="0.122"/>
      <feComposite operator="in" in2="blur-2"/>
      <feComposite in="SourceGraphic"/>
    </filter>
    <filter id="Rectangle_126-3" x="-6" y="1000" width="1093" height="398" filterUnits="userSpaceOnUse">
      <feOffset dy="12" input="SourceAlpha"/>
      <feGaussianBlur stdDeviation="23" result="blur-3"/>
      <feFlood flood-color="#110d24" flood-opacity="0.122"/>
      <feComposite operator="in" in2="blur-3"/>
      <feComposite in="SourceGraphic"/>
    </filter>
    <filter id="Rectangle_126-4" x="-6" y="1582" width="1093" height="398" filterUnits="userSpaceOnUse">
      <feOffset dy="12" input="SourceAlpha"/>
      <feGaussianBlur stdDeviation="23" result="blur-4"/>
      <feFlood flood-color="#110d24" flood-opacity="0.122"/>
      <feComposite operator="in" in2="blur-4"/>
      <feComposite in="SourceGraphic"/>
    </filter>
    <clipPath id="clip-Wallet">
      <rect width="1080" height="1920"/>
    </clipPath>
  </defs>
  <g id="Wallet" class="cls-1">
    <rect class="cls-5" width="1080" height="1920"/>
    <g id="Rectangle_141" data-name="Rectangle 141" class="cls-2" transform="translate(0 617.6)">
      <rect class="cls-15" width="540" height="108.8"/>
      <rect class="cls-16" x="1.5" y="1.5" width="537" height="105.8"/>
    </g>
    <g id="Rectangle_142" data-name="Rectangle 142" class="cls-3" transform="translate(540 617.6)">
      <rect class="cls-15" width="540" height="108.8"/>
      <rect class="cls-16" x="1.5" y="1.5" width="537" height="105.8"/>
    </g>
    <rect id="XMLID_99_" class="cls-4" width="1080" height="227.3"/>
    <g id="Group_325" data-name="Group 325">
      <path id="XMLID_1_" class="cls-5" d="M41.1,16.057H12.665V6.2L0,18.865,12.665,31.529v-9.8H41.1Z" transform="translate(54 98.335)"/>
      <text id="Wallet-2" data-name="Wallet" class="cls-6" transform="translate(149 106)"><tspan x="0" y="0">Wallet</tspan></text>
      <g id="Group_318" data-name="Group 318" transform="translate(-391 -250)">
        <text id="EARNING:_" data-name="EARNING: " class="cls-7" transform="translate(540 409)"><tspan x="0" y="0">EARNING: </tspan></text>
        <text id="_13_" data-name="+  13 %" class="cls-8" transform="translate(766 407)"><tspan x="0" y="0" xml:space="preserve">+  13 %</tspan></text>
      </g>
    </g>
    <text id="_3_356.35" data-name="3, 356.35" class="cls-9" transform="translate(378 529)"><tspan x="0" y="0">3, 356.35</tspan></text>
    <g id="Group_273" data-name="Group 273" class="cls-10" transform="translate(470 302.425)">
      <path id="Path_4" data-name="Path 4" d="M118.658,0H20.879A20.821,20.821,0,0,0,0,20.879V75.97A20.887,20.887,0,0,0,20.879,96.849h97.883A20.887,20.887,0,0,0,139.641,75.97V20.879A20.975,20.975,0,0,0,118.658,0ZM94.265,91.681H20.879A15.718,15.718,0,0,1,6.822,82.9h1.24V80.828H5.995v.1a16.108,16.108,0,0,1-.827-4.961V20.879a14.972,14.972,0,0,1,.827-4.858v.1H8.062V14.057H6.822A15.514,15.514,0,0,1,20.879,5.168H94.265a15.7,15.7,0,0,1,15.711,15.711v14.16H89.717A13.41,13.41,0,0,0,76.28,48.476h0A13.41,13.41,0,0,0,89.717,61.913h20.155v14.16A15.66,15.66,0,0,1,94.265,91.681Zm40.1-15.711a15.7,15.7,0,0,1-15.711,15.711h-10.75a20.859,20.859,0,0,0,7.132-15.711V61.81h19.328Zm0-19.328H89.717a8.269,8.269,0,1,1,0-16.538h44.652Zm0-21.706H115.041V20.879a21.026,21.026,0,0,0-7.132-15.711h10.75a15.7,15.7,0,0,1,15.711,15.711Z"/>
      <circle id="Ellipse_204" data-name="Ellipse 204" cx="3.618" cy="3.618" r="3.618" transform="translate(86.616 44.755)"/>
      <rect id="Rectangle_51" data-name="Rectangle 51" width="4.134" height="2.067" transform="translate(31.732 13.954)"/>
      <rect id="Rectangle_52" data-name="Rectangle 52" width="4.134" height="2.067" transform="translate(50.233 13.954)"/>
      <rect id="Rectangle_53" data-name="Rectangle 53" width="4.134" height="2.067" transform="translate(78.037 13.954)"/>
      <rect id="Rectangle_54" data-name="Rectangle 54" width="4.134" height="2.067" transform="translate(22.429 13.954)"/>
      <rect id="Rectangle_55" data-name="Rectangle 55" width="4.134" height="2.067" transform="translate(40.931 13.954)"/>
      <rect id="Rectangle_56" data-name="Rectangle 56" width="4.134" height="2.067" transform="translate(13.127 13.954)"/>
      <rect id="Rectangle_57" data-name="Rectangle 57" width="4.134" height="2.067" transform="translate(68.735 13.954)"/>
      <rect id="Rectangle_58" data-name="Rectangle 58" width="4.134" height="2.067" transform="translate(96.539 13.954)"/>
      <rect id="Rectangle_59" data-name="Rectangle 59" width="4.134" height="2.067" transform="translate(59.536 13.954)"/>
      <rect id="Rectangle_60" data-name="Rectangle 60" width="4.134" height="2.067" transform="translate(87.34 13.954)"/>
      <rect id="Rectangle_61" data-name="Rectangle 61" width="2.067" height="2.067" transform="translate(105.842 13.954)"/>
      <rect id="Rectangle_62" data-name="Rectangle 62" width="4.134" height="2.067" transform="translate(68.735 80.828)"/>
      <rect id="Rectangle_63" data-name="Rectangle 63" width="4.134" height="2.067" transform="translate(78.037 80.828)"/>
      <rect id="Rectangle_64" data-name="Rectangle 64" width="4.134" height="2.067" transform="translate(96.539 80.828)"/>
      <rect id="Rectangle_65" data-name="Rectangle 65" width="4.134" height="2.067" transform="translate(59.536 80.828)"/>
      <rect id="Rectangle_66" data-name="Rectangle 66" width="4.134" height="2.067" transform="translate(31.732 80.828)"/>
      <rect id="Rectangle_67" data-name="Rectangle 67" width="4.134" height="2.067" transform="translate(87.34 80.828)"/>
      <rect id="Rectangle_68" data-name="Rectangle 68" width="4.134" height="2.067" transform="translate(40.931 80.828)"/>
      <rect id="Rectangle_69" data-name="Rectangle 69" width="4.134" height="2.067" transform="translate(13.127 80.828)"/>
      <rect id="Rectangle_70" data-name="Rectangle 70" width="4.134" height="2.067" transform="translate(22.429 80.828)"/>
      <rect id="Rectangle_71" data-name="Rectangle 71" width="4.134" height="2.067" transform="translate(50.233 80.828)"/>
      <rect id="Rectangle_72" data-name="Rectangle 72" width="2.067" height="2.067" transform="translate(105.842 80.828)"/>
    </g>
    <text id="ADD_MONEY" data-name="ADD MONEY" class="cls-11" transform="translate(270 684)"><tspan x="-132.366" y="0">ADD MONEY</tspan></text>
    <text id="CHECK_OUT" data-name="CHECK OUT" class="cls-12" transform="translate(810 684)"><tspan x="-123.497" y="0">CHECK OUT</tspan></text>
    <g class="cls-20" transform="matrix(1, 0, 0, 1, 0, 0)">
      <rect id="Rectangle_126-5" data-name="Rectangle 126" class="cls-5" width="955" height="260" rx="15" transform="translate(63 766)"/>
    </g>
    <text id="CREDIT" class="cls-13" transform="translate(97 844)"><tspan x="0" y="0">CREDIT</tspan></text>
    <text id="ORDER_:_5326849SEF49" data-name="ORDER : 5326849SEF49" class="cls-14" transform="translate(97 926)"><tspan x="0" y="0">ORDER : 5326849SEF49</tspan></text>
    <text id="DD_MM_YYYY_::_13_:_12_:_45" data-name="DD / MM / YYYY  ::  13 : 12 : 45" class="cls-14" transform="translate(97 978)"><tspan x="0" y="0" xml:space="preserve">DD / MM / YYYY  ::  13 : 12 : 45</tspan></text>
    <text id="_123.23" data-name="123.23" class="cls-13" transform="translate(985 844)"><tspan x="-165.855" y="0">123.23</tspan></text>
    <g class="cls-19" transform="matrix(1, 0, 0, 1, 0, 0)">
      <rect id="Rectangle_126-6" data-name="Rectangle 126" class="cls-5" width="955" height="260" rx="15" transform="translate(63 1348)"/>
    </g>
    <text id="DEBIT" class="cls-13" transform="translate(97 1426)"><tspan x="0" y="0">DEBIT</tspan></text>
    <text id="ORDER_:_5326849SEF49-2" data-name="ORDER : 5326849SEF49" class="cls-14" transform="translate(97 1508)"><tspan x="0" y="0">ORDER : 5326849SEF49</tspan></text>
    <text id="DD_MM_YYYY_::_13_:_12_:_45-2" data-name="DD / MM / YYYY  ::  13 : 12 : 45" class="cls-14" transform="translate(97 1560)"><tspan x="0" y="0" xml:space="preserve">DD / MM / YYYY  ::  13 : 12 : 45</tspan></text>
    <text id="_15.00" data-name="15.00" class="cls-13" transform="translate(985 1426)"><tspan x="-134.852" y="0">15.00</tspan></text>
    <g class="cls-18" transform="matrix(1, 0, 0, 1, 0, 0)">
      <rect id="Rectangle_126-7" data-name="Rectangle 126" class="cls-5" width="955" height="260" rx="15" transform="translate(63 1057)"/>
    </g>
    <text id="DEBIT-2" data-name="DEBIT" class="cls-13" transform="translate(97 1135)"><tspan x="0" y="0">DEBIT</tspan></text>
    <text id="ORDER_:_5326849SEF49-3" data-name="ORDER : 5326849SEF49" class="cls-14" transform="translate(97 1217)"><tspan x="0" y="0">ORDER : 5326849SEF49</tspan></text>
    <text id="DD_MM_YYYY_::_13_:_12_:_45-3" data-name="DD / MM / YYYY  ::  13 : 12 : 45" class="cls-14" transform="translate(97 1269)"><tspan x="0" y="0" xml:space="preserve">DD / MM / YYYY  ::  13 : 12 : 45</tspan></text>
    <text id="_23.66" data-name="23.66" class="cls-13" transform="translate(985 1135)"><tspan x="-134.852" y="0">23.66</tspan></text>
    <g class="cls-17" transform="matrix(1, 0, 0, 1, 0, 0)">
      <rect id="Rectangle_126-8" data-name="Rectangle 126" class="cls-5" width="955" height="260" rx="15" transform="translate(63 1639)"/>
    </g>
    <text id="CREDIT-2" data-name="CREDIT" class="cls-13" transform="translate(97 1717)"><tspan x="0" y="0">CREDIT</tspan></text>
    <text id="ORDER_:_5326849SEF49-4" data-name="ORDER : 5326849SEF49" class="cls-14" transform="translate(97 1799)"><tspan x="0" y="0">ORDER : 5326849SEF49</tspan></text>
    <text id="DD_MM_YYYY_::_13_:_12_:_45-4" data-name="DD / MM / YYYY  ::  13 : 12 : 45" class="cls-14" transform="translate(97 1851)"><tspan x="0" y="0" xml:space="preserve">DD / MM / YYYY  ::  13 : 12 : 45</tspan></text>
    <text id="_500.00" data-name="500.00" class="cls-13" transform="translate(985 1717)"><tspan x="-165.855" y="0">500.00</tspan></text>
  </g>
</svg>
